<?xml version="1.0" encoding="iso-8859-1"?>
<!-- Generator: Adobe Illustrator 19.0.0, SVG Export Plug-In . SVG Version: 6.00 Build 0)  -->
<svg version="1.1" id="Layer_1" xmlns="http://www.w3.org/2000/svg" xmlns:xlink="http://www.w3.org/1999/xlink" x="0px" y="0px"
	 viewBox="0 0 512.853 512.853" style="enable-background:new 0 0 512.853 512.853;" xml:space="preserve">
<g transform="translate(0 1)">
	<path style="fill:#FFE100;" d="M256,485.827c-0.853,0-2.56,0-3.413,0s-1.707,0-2.56,0c-25.6,0-38.4-8.533-53.76-21.333
		c-11.093-8.533-21.333-17.067-33.28-19.627c-5.973-0.853-11.947-1.707-17.067-1.707c-10.24,0-17.92,1.707-23.893,3.413
		c-3.413,0.853-6.827,1.707-9.387,1.707c-2.56,0-5.12-0.853-5.973-5.12s-1.707-7.68-2.56-11.093
		c-1.707-9.387-3.413-15.36-6.827-16.213c-40.107-6.827-52.053-17.067-54.613-23.893c0-1.707,0-2.56,0-3.413
		c0-2.56,1.707-5.12,3.413-5.12c61.44-11.947,89.6-85.333,90.453-87.893l0,0c3.413-8.533,4.267-16.213,2.56-23.04
		c-4.267-11.947-17.92-17.067-27.307-20.48c-2.56-0.853-4.267-1.707-5.973-2.56c-17.92-8.533-19.627-17.067-18.773-21.333
		c0.853-7.68,10.24-12.8,17.067-12.8c1.707,0,3.413,0,5.12,0.853c8.533,4.267,15.36,6.827,22.187,6.827
		c8.533,0,12.8-4.267,12.8-5.12c0-5.12-0.853-10.24-0.853-15.36c-1.707-34.133-4.267-75.947,5.12-99.84
		C175.787,31,234.667,25.027,252.587,25.027c0.853,0,7.68,0,7.68,0h0.853c17.067,0,75.947,5.973,104.107,77.653
		c9.387,23.893,6.827,66.56,5.12,99.84v1.707c0,5.12-0.853,9.387-0.853,13.653c0.853,0.853,4.267,4.267,11.947,5.12l0,0
		c5.973,0,12.8-2.56,20.48-6.827c2.56-0.853,5.12-1.707,6.827-1.707c2.56,0,5.12,0.853,7.68,1.707l0,0
		c5.973,2.56,10.24,7.68,10.24,12.8c0,5.12-3.413,12.8-19.627,19.627c-1.707,0.853-3.413,1.707-5.973,2.56
		c-9.387,3.413-23.04,8.533-27.307,20.48c-2.56,5.973-1.707,13.653,2.56,23.04l0,0c0.853,3.413,27.307,76.8,89.6,88.747
		c2.56,0.853,4.267,2.56,3.413,5.12c0,0.853,0,1.707-0.853,3.413c-2.56,6.827-12.8,16.213-52.907,23.893
		c-3.413,0.853-4.267,5.12-6.827,16.213c-0.853,3.413-1.707,7.68-2.56,11.093s-2.56,5.12-5.973,5.12h-0.853
		c-1.707,0-5.12-0.853-9.387-1.707c-6.827-1.707-14.507-2.56-23.893-2.56c-5.973,0-11.947,0.853-17.067,1.707
		c-11.947,2.56-22.187,11.093-33.28,19.627C301.227,478.147,281.6,485.827,256,485.827L256,485.827z"/>
	<path style="fill:#FFFFFF;" d="M106.667,443.16c-0.853-4.267-1.707-7.68-2.56-11.093c-1.707-9.387-3.413-15.36-6.827-16.213
		c-40.107-6.827-52.053-17.067-54.613-23.893c0-1.707,0-2.56,0-3.413c0-2.56,1.707-5.12,3.413-5.12
		c61.44-11.947,89.6-85.333,90.453-87.893l0,0c3.413-8.533,4.267-16.213,2.56-23.04c-4.267-11.947-17.92-17.067-27.307-20.48
		c-2.56-0.853-4.267-1.707-5.973-2.56c-17.92-8.533-19.627-17.067-18.773-21.333c0.853-3.413,2.56-5.973,5.12-8.533
		c-2.56-0.853-5.12-1.707-6.827-3.413c-1.707-0.853-3.413-0.853-5.973-0.853c-7.68,0-17.92,5.12-19.627,12.8
		c-0.853,4.267,0.853,12.8,22.187,21.333c1.707,0.853,4.267,1.707,6.827,2.56c10.24,3.413,26.453,8.533,31.573,20.48
		c2.56,5.973,1.707,13.653-2.56,23.04l0,0c-1.707,3.413-33.28,76.8-104.96,87.893c-2.56,0-4.267,2.56-4.267,5.12
		c0,0.853,0,1.707,0.853,3.413c2.56,6.827,16.213,17.067,63.147,23.893c4.267,0.853,5.12,6.827,7.68,16.213
		c0.853,3.413,1.707,7.68,2.56,11.093c1.707,4.267,4.267,5.12,7.68,5.12c2.56,0,5.973-0.853,10.24-1.707
		c1.707,0,4.267-0.853,6.827-1.707C107.52,444.867,106.667,444.013,106.667,443.16"/>
	<path style="fill:#FFA800;" d="M365.227,102.68c9.387,23.893,6.827,66.56,5.12,99.84v1.707c0,5.12-0.853,9.387-0.853,13.653
		c0.853,0.853,4.267,4.267,11.947,5.12l0,0c3.413,0,6.827-0.853,10.24-1.707c-2.56-0.853-4.267-2.56-4.267-2.56
		c0-4.267,0.853-9.387,0.853-13.653v-1.707c1.707-34.133,5.12-75.947-5.973-99.84C349.867,31,281.6,25.027,261.973,25.027h-0.853
		C278.187,25.027,337.067,31,365.227,102.68"/>
	<path style="fill:#FFFFFF;" d="M126.293,217.88c0,0-1.707,1.707-5.12,3.413c3.413,0.853,6.827,1.707,10.24,1.707
		c8.533,0,12.8-4.267,12.8-5.12c0-5.12-0.853-10.24-0.853-15.36c-1.707-34.133-4.267-75.947,5.12-99.84
		C175.787,31,234.667,25.027,252.587,25.027c0,0,1.707,0,3.413,0c-1.707,0-4.267,0-4.267,0c-20.48,0-88.747,5.973-120.32,77.653
		c-11.093,23.893-7.68,66.56-5.973,99.84C125.44,208.493,126.293,213.613,126.293,217.88"/>
	<path style="fill:#FFA800;" d="M496.64,383.427c-71.68-11.947-102.4-85.333-103.253-88.747l0,0
		c-4.267-8.533-5.12-16.213-2.56-23.04c5.12-11.947,21.333-17.067,31.573-20.48c2.56-0.853,5.12-1.707,6.827-2.56
		c18.773-7.68,22.187-14.507,22.187-19.627s-5.12-10.24-11.947-12.8l0,0c-2.56-0.853-5.973-1.707-8.533-1.707
		c-1.707,0-5.12,0-7.68,1.707c-1.707,0.853-3.413,1.707-5.973,2.56c4.267,2.56,6.827,6.827,6.827,11.093
		c0,5.12-3.413,12.8-19.627,19.627c-1.707,0.853-3.413,1.707-5.973,2.56c-9.387,3.413-23.04,8.533-27.307,20.48
		c-2.56,5.973-1.707,13.653,2.56,23.04l0,0c0.853,3.413,27.307,76.8,89.6,88.747c2.56,0.853,4.267,2.56,3.413,5.12
		c0,0.853,0,1.707-0.853,3.413c-2.56,6.827-12.8,16.213-52.907,23.893c-3.413,0.853-4.267,5.973-6.827,16.213
		c-0.853,3.413-1.707,7.68-2.56,11.093c0,0.853-0.853,1.707-0.853,2.56c2.56,0,5.12,0.853,7.68,1.707
		c4.267,0.853,7.68,1.707,10.24,1.707h0.853c3.413,0,5.973-1.707,6.827-5.12c0.853-4.267,1.707-7.68,2.56-11.093
		c2.56-10.24,3.413-15.36,7.68-16.213c46.933-6.827,58.027-17.067,61.44-23.893c0.853-0.853,0.853-1.707,0.853-3.413
		C500.907,385.987,499.2,383.427,496.64,383.427"/>
	<path d="M256,494.36c-0.853,0-2.56,0-3.413,0s-1.707,0-2.56,0c-33.28,0-49.493-9.387-67.413-22.187
		c-11.947-8.533-23.04-16.213-34.987-17.92c-6.827-1.707-12.8-2.56-19.627-2.56c-11.093,0-19.627,1.707-26.453,3.413
		c-4.267,0.853-8.533,1.707-11.947,1.707c-10.24,0-14.507-6.827-15.36-11.093c-0.853-4.267-1.707-8.533-2.56-11.947
		c-0.853-2.56-1.707-7.68-2.56-10.24c-40.107-6.827-62.293-15.36-67.413-29.013C0.853,392.813,0,391.107,0,388.547
		c0-6.827,4.267-12.8,11.093-14.507c67.413-11.093,97.28-80.213,98.987-82.773c3.413-6.827,4.267-12.8,2.56-16.213
		c-3.413-7.68-17.92-12.8-26.453-15.36c-3.413-0.853-5.973-1.707-7.68-2.56c-25.6-10.24-29.013-22.187-27.307-30.72
		c2.56-15.36,25.6-23.04,37.547-17.92c8.533,4.267,15.36,5.973,22.187,5.973c2.56,0,5.12-0.853,6.827-0.853
		c0-3.413,0-6.827-0.853-10.24c-2.56-34.987-5.12-78.507,6.827-104.107c34.133-76.8,106.667-82.773,128-82.773h10.24
		c21.333,0,93.867,5.973,128.853,82.773c11.947,25.6,8.533,69.12,6.827,104.107v1.707c0,3.413,0,5.973-0.853,8.533
		c1.707,0.853,3.413,0.853,5.12,0.853c5.12,0,11.947-2.56,20.48-5.973c4.267-1.707,8.533-2.56,11.093-2.56
		c4.267,0,8.533,0.853,11.947,2.56c10.24,3.413,17.067,11.947,17.067,20.48c0,11.093-9.387,20.48-27.307,28.16
		c-1.707,0.853-4.267,1.707-6.827,2.56c-9.387,2.56-23.893,7.68-27.307,15.36c-1.707,4.267-0.853,9.387,2.56,16.213v0.853
		c3.413,7.68,32.427,72.533,97.28,83.627c6.827,0.853,11.947,7.68,11.947,14.507c0,1.707-0.853,4.267-1.707,5.973
		c-5.973,12.8-25.6,22.187-65.707,28.16c-0.853,2.56-1.707,7.68-2.56,9.387c-0.853,4.267-1.707,7.68-2.56,11.947
		c-1.707,6.827-7.68,11.093-14.507,11.093c-3.413,0-7.68-0.853-12.8-1.707c-7.68-1.707-16.213-2.56-26.453-2.56
		c-5.973,0-12.8,0.853-18.773,1.707c-11.947,1.707-23.04,10.24-34.987,17.92C310.613,486.68,285.013,494.36,256,494.36z
		 M252.587,477.293L252.587,477.293c1.707,0,2.56,0,3.413,0c25.6,0,46.933-5.973,65.707-19.627
		c12.8-9.387,26.453-18.773,41.813-21.333c7.68-0.853,14.507-1.707,21.333-1.707c11.947,0,21.333,1.707,29.867,3.413
		c4.267,0.853,6.827,0.853,8.533,0.853c0.853-3.413,1.707-6.827,2.56-9.387c2.56-11.093,4.267-21.333,14.507-22.187
		c36.693-5.973,48.64-12.8,52.907-16.213c-70.827-14.507-102.4-84.48-105.813-93.013c-5.12-11.093-6.827-21.333-2.56-29.867
		c6.827-15.36,25.6-21.333,36.693-24.747c2.56-0.853,5.12-1.707,6.827-2.56c13.653-5.12,17.067-10.24,17.067-11.947
		c0-0.853-1.707-3.413-5.973-5.12c-3.413-1.707-7.68-1.707-9.387-0.853c-10.24,4.267-18.773,6.827-27.307,7.68
		c-12.8-0.853-18.773-5.973-20.48-7.68c-1.707-1.707-2.56-4.267-2.56-6.827c0-4.267,0.853-8.533,0.853-13.653v-1.707
		c1.707-33.28,4.267-74.24-5.12-96.427c-30.72-65.707-94.72-70.827-113.493-70.827h-0.853l0,0h-8.533
		c-18.773,0-82.773,5.12-112.64,72.533c-10.24,22.187-7.68,63.147-5.12,96.427c0,5.12,0.853,10.24,0.853,15.36
		c0,2.56-0.853,4.267-2.56,5.973c-1.707,1.707-8.533,7.68-21.333,7.68c-8.533,0-18.773-2.56-29.013-7.68c0,0-0.853,0-2.56,0
		c-5.12,0-11.093,3.413-11.093,5.973c0,0.853,2.56,5.973,17.067,11.947c1.707,0.853,3.413,1.707,5.973,1.707
		c11.947,3.413,30.72,9.387,37.547,24.747c3.413,8.533,2.56,18.773-2.56,29.867l0,0c-4.267,9.387-36.693,77.653-106.667,92.16
		c4.267,3.413,17.067,11.093,54.613,16.213c10.24,1.707,11.947,11.947,14.507,23.04c0.853,3.413,1.707,6.827,2.56,10.24
		c2.56,0,5.12-0.853,8.533-1.707c6.827-1.707,17.067-3.413,29.867-3.413c6.827,0,14.507,0.853,21.333,1.707
		c16.213,2.56,29.013,11.947,41.813,21.333c16.213,11.093,29.867,19.627,58.027,19.627
		C250.027,477.293,250.88,477.293,252.587,477.293C251.733,477.293,251.733,477.293,252.587,477.293z M70.827,423.533
		L70.827,423.533L70.827,423.533z"/>
</g>
<g>
</g>
<g>
</g>
<g>
</g>
<g>
</g>
<g>
</g>
<g>
</g>
<g>
</g>
<g>
</g>
<g>
</g>
<g>
</g>
<g>
</g>
<g>
</g>
<g>
</g>
<g>
</g>
<g>
</g>
</svg>
